<svg width="80" height="80" viewBox="0 0 80 80" fill="none" xmlns="http://www.w3.org/2000/svg">
<path d="M43.5343 7.49909C42.5966 6.56173 41.3251 6.03516 39.9993 6.03516C38.6734 6.03516 37.4019 6.56173 36.4643 7.49909L3.22925 40.7291C2.99681 40.9615 2.81243 41.2375 2.68664 41.5412C2.56084 41.8449 2.49609 42.1704 2.49609 42.4991C2.49609 42.8278 2.56084 43.1533 2.68664 43.457C2.81243 43.7607 2.99681 44.0367 3.22925 44.2691C3.69869 44.7385 4.33537 45.0022 4.99925 45.0022C5.32797 45.0022 5.65347 44.9375 5.95717 44.8117C6.26087 44.6859 6.53681 44.5015 6.76925 44.2691L9.99925 41.0341V67.4991C9.99925 69.4882 10.7894 71.3959 12.196 72.8024C13.6025 74.2089 15.5101 74.9991 17.4993 74.9991H62.4993C64.4884 74.9991 66.396 74.2089 67.8026 72.8024C69.2091 71.3959 69.9993 69.4882 69.9993 67.4991V41.0341L73.2293 44.2691C73.6987 44.7385 74.3354 45.0022 74.9993 45.0022C75.6631 45.0022 76.2998 44.7385 76.7693 44.2691C77.2387 43.7997 77.5024 43.163 77.5024 42.4991C77.5024 41.8352 77.2387 41.1985 76.7693 40.7291L64.9993 28.9641V12.4991C64.9993 11.836 64.7359 11.2002 64.267 10.7313C63.7982 10.2625 63.1623 9.99909 62.4993 9.99909H57.4993C56.8362 9.99909 56.2003 10.2625 55.7315 10.7313C55.2626 11.2002 54.9993 11.836 54.9993 12.4991V18.9641L43.5343 7.49909ZM64.9993 36.0341V67.4991C64.9993 68.1621 64.7359 68.798 64.267 69.2669C63.7982 69.7357 63.1623 69.9991 62.4993 69.9991H17.4993C16.8362 69.9991 16.2003 69.7357 15.7315 69.2669C15.2626 68.798 14.9993 68.1621 14.9993 67.4991V36.0341L39.9993 11.0341L64.9993 36.0341Z" fill="#FFF3F1"/>
</svg>
