<svg width="42" height="40" viewBox="0 0 42 40" fill="none" xmlns="http://www.w3.org/2000/svg">
<path d="M24.8095 39.0695V28.5322C24.8095 27.6723 25.2109 26.8477 25.9253 26.2396C26.6397 25.6316 27.6087 25.29 28.619 25.29V12.3211C28.619 12.3211 25.7619 10.7 21 10.7C16.2381 10.7 13.381 12.3211 13.381 12.3211V25.29C14.3913 25.29 15.3603 25.6316 16.0747 26.2396C16.7891 26.8477 17.1905 27.6723 17.1905 28.5322V39.0695M4.80952 39.0695V28.5322C4.80952 27.6723 4.40816 26.8477 3.69374 26.2396C2.97932 25.6316 2.01035 25.29 1 25.29V12.3211C1 12.3211 3.85714 10.7 8.61905 10.7M37.1905 39.0695V28.5322C37.1905 27.6723 37.5918 26.8477 38.3063 26.2396C39.0207 25.6316 39.9897 25.29 41 25.29V12.3211C41 12.3211 38.1429 10.7 33.381 10.7M20.7143 7.45777C20.7143 7.45777 17.6667 5.83666 17.6667 3.81027C17.6667 3.05872 18.0175 2.33796 18.6419 1.80654C19.2663 1.27511 20.1131 0.976563 20.9962 0.976562C21.8792 0.976563 22.7261 1.27511 23.3505 1.80654C23.9749 2.33796 24.3257 3.05872 24.3257 3.81027C24.3257 5.83666 21.2857 7.45777 21.2857 7.45777H20.7143ZM8.33333 7.45777C8.33333 7.45777 5.28571 5.83666 5.28571 3.81027C5.28571 3.43814 5.37183 3.06966 5.53916 2.72586C5.70648 2.38205 5.95173 2.06967 6.26091 1.80654C6.57008 1.5434 6.93713 1.33467 7.34108 1.19227C7.74504 1.04986 8.178 0.976562 8.61524 0.976562C9.05248 0.976562 9.48544 1.04986 9.88939 1.19227C10.2933 1.33467 10.6604 1.5434 10.9696 1.80654C11.2787 2.06967 11.524 2.38205 11.6913 2.72586C11.8586 3.06966 11.9448 3.43814 11.9448 3.81027C11.9448 5.83666 8.90476 7.45777 8.90476 7.45777H8.33333ZM33.0952 7.45777C33.0952 7.45777 30.0476 5.83666 30.0476 3.81027C30.0476 3.05872 30.3984 2.33796 31.0228 1.80654C31.6472 1.27511 32.4941 0.976563 33.3771 0.976562C34.2602 0.976563 35.1071 1.27511 35.7315 1.80654C36.3559 2.33796 36.7067 3.05872 36.7067 3.81027C36.7067 5.83666 33.6667 7.45777 33.6667 7.45777H33.0952Z" stroke="#C17162"/>
</svg>
