<svg width="36" height="30" viewBox="0 0 36 30" fill="none" xmlns="http://www.w3.org/2000/svg">
<path d="M18.0007 4.88508L17.1007 5.71042C17.2173 5.82563 17.3571 5.91727 17.5117 5.97986C17.6663 6.04246 17.8326 6.07472 18.0007 6.07472C18.1687 6.07472 18.335 6.04246 18.4896 5.97986C18.6442 5.91727 18.784 5.82563 18.9007 5.71042L18.0007 4.88508ZM9.66898 22.2174C9.41261 22.0166 9.08297 21.921 8.7526 21.9516C8.42222 21.9823 8.11817 22.1367 7.90732 22.3808C7.69647 22.625 7.5961 22.9389 7.6283 23.2535C7.66049 23.5682 7.82261 23.8577 8.07898 24.0585L9.66898 22.2174ZM1.90398 17.4415C1.98278 17.5786 2.08917 17.6996 2.21707 17.7976C2.34498 17.8956 2.4919 17.9687 2.64945 18.0126C2.807 18.0565 2.9721 18.0704 3.1353 18.0536C3.29851 18.0368 3.45663 17.9895 3.60065 17.9144C3.74467 17.8394 3.87175 17.7381 3.97465 17.6163C4.07756 17.4945 4.15426 17.3545 4.20038 17.2045C4.2465 17.0545 4.26113 16.8973 4.24345 16.7418C4.22577 16.5864 4.17611 16.4358 4.09732 16.2987L1.90398 17.4415ZM2.58398 10.6577C2.58398 7.24525 4.60898 4.38193 7.37398 3.17724C10.0607 2.00747 13.6707 2.31698 17.1007 5.71042L18.9007 4.06132C14.834 0.0345788 10.1073 -0.63046 6.33398 1.0123C2.64398 2.62014 0.0839844 6.35324 0.0839844 10.6577H2.58398ZM12.1623 27.1059C13.0173 27.7472 13.934 28.4297 14.8623 28.9471C15.7907 29.4645 16.8507 29.8836 18.0007 29.8836V27.5027C17.484 27.5027 16.8773 27.3123 16.124 26.8917C15.369 26.4726 14.5873 25.8949 13.7107 25.2362L12.1623 27.1059ZM23.839 27.1059C26.2157 25.3203 29.2557 23.276 31.639 20.719C34.0673 18.116 35.9173 14.8892 35.9173 10.6577H33.4173C33.4173 14.1464 31.9173 16.8336 29.7707 19.1382C27.579 21.4872 24.8173 23.3395 22.2907 25.2362L23.839 27.1059ZM35.9173 10.6577C35.9173 6.35324 33.359 2.62014 29.6673 1.0123C25.894 -0.63046 21.1707 0.0345788 17.1007 4.05973L18.9007 5.71042C22.3307 2.31857 25.9406 2.00747 28.6273 3.17724C31.3923 4.38193 33.4173 7.24366 33.4173 10.6577H35.9173ZM22.2907 25.2362C21.414 25.8949 20.6323 26.4726 19.8773 26.8917C19.1223 27.3107 18.5173 27.5027 18.0007 27.5027V29.8836C19.1507 29.8836 20.2107 29.4629 21.139 28.9471C22.069 28.4297 22.984 27.7472 23.839 27.1059L22.2907 25.2362ZM13.7107 25.2362C12.384 24.241 11.0357 23.2887 9.66898 22.2174L8.07898 24.0585C9.46232 25.1426 10.9257 26.1774 12.1623 27.1059L13.7107 25.2362ZM4.09732 16.3003C3.09319 14.5741 2.57206 12.631 2.58398 10.6577H0.0839844C0.0839844 13.2576 0.783984 15.4908 1.90398 17.4415L4.09732 16.3003Z" fill="#C17162"/>
</svg>
