<svg width="80" height="80" viewBox="0 0 80 80" fill="none" xmlns="http://www.w3.org/2000/svg">
<path d="M64.4574 53.3717C65.5311 52.3521 66.3861 51.1246 66.9704 49.764C67.5547 48.4034 67.856 46.9382 67.856 45.4574C67.856 43.9767 67.5547 42.5114 66.9704 41.1508C66.3861 39.7903 65.5311 38.5628 64.4574 37.5431C62.2595 35.4571 59.3448 34.2941 56.3145 34.2941C53.2843 34.2941 50.3696 35.4571 48.1717 37.5431L40.0003 45.7146L31.8288 37.5431C29.6309 35.4571 26.7162 34.2941 23.686 34.2941C20.6557 34.2941 17.741 35.4571 15.5431 37.5431C14.4694 38.5628 13.6144 39.7903 13.0301 41.1508C12.4458 42.5114 12.1445 43.9767 12.1445 45.4574C12.1445 46.9382 12.4458 48.4034 13.0301 49.764C13.6144 51.1246 14.4694 52.3521 15.5431 53.3717L40.0003 77.1431L64.4574 53.3717ZM40.0003 25.7146C43.0313 25.7146 45.9382 24.5105 48.0815 22.3672C50.2248 20.2239 51.4288 17.317 51.4288 14.286C51.4288 11.2549 50.2248 8.34805 48.0815 6.20477C45.9382 4.0615 43.0313 2.85742 40.0003 2.85742C36.9692 2.85742 34.0623 4.0615 31.919 6.20477C29.7758 8.34805 28.5717 11.2549 28.5717 14.286C28.5717 17.317 29.7758 20.2239 31.919 22.3672C34.0623 24.5105 36.9692 25.7146 40.0003 25.7146Z" stroke="#FFF3F1" stroke-width="5.71429" stroke-linecap="round" stroke-linejoin="round"/>
</svg>
