<svg width="34" height="26" viewBox="0 0 34 26" fill="none" xmlns="http://www.w3.org/2000/svg">
<path d="M3.66732 25.7312C2.75065 25.7312 1.96621 25.4206 1.31398 24.7995C0.661762 24.1784 0.335095 23.4308 0.333984 22.5568V3.51035C0.333984 2.63738 0.660651 1.89034 1.31398 1.26921C1.96732 0.648087 2.75176 0.336996 3.66732 0.335938H30.334C31.2507 0.335938 32.0357 0.647029 32.689 1.26921C33.3423 1.8914 33.6684 2.63844 33.6673 3.51035V22.5568C33.6673 23.4298 33.3412 24.1773 32.689 24.7995C32.0368 25.4217 31.2518 25.7323 30.334 25.7312H3.66732ZM17.0007 14.6208L3.66732 6.68476V22.5568H30.334V6.68476L17.0007 14.6208ZM17.0007 11.4464L30.334 3.51035H3.66732L17.0007 11.4464ZM3.66732 6.68476V3.51035V22.5568V6.68476Z" fill="#C17162"/>
</svg>
