<svg width="94" height="94" viewBox="0 0 94 94" fill="none" xmlns="http://www.w3.org/2000/svg">
<path d="M16.5354 86.1468V72.2426C16.5354 67.2645 15.2312 64.6756 12.6697 60.3477C9.54705 55.0607 7.87839 49.0419 7.83298 42.9017C7.78758 36.7616 9.36706 30.7188 12.4112 25.3862C15.4553 20.0536 19.8557 15.6211 25.166 12.5383C30.4764 9.45555 36.5076 7.83221 42.6479 7.83301C51.8798 7.83405 60.7334 11.5013 67.262 18.0285C73.7907 24.5557 77.46 33.4085 77.4631 42.6404C77.4631 44.9121 77.4631 46.0479 77.5571 46.6824C77.7843 48.2021 78.4971 49.5103 79.1904 50.8654L86.1659 64.3936L80.6826 67.1353C79.0964 67.9264 78.3013 68.322 77.749 69.0544C77.1968 69.7868 77.0401 70.6172 76.7307 72.2661L76.6994 72.4306C75.9826 76.2219 75.1954 80.4049 72.9785 83.0448C72.1952 83.973 71.2239 84.7289 70.1311 85.2655C68.3255 86.1468 66.1048 86.1468 61.6633 86.1468C59.607 86.1468 57.5469 86.1938 55.4906 86.1468C50.6222 86.0253 46.9993 81.9285 46.9993 77.1776" stroke="#FFF3F1" stroke-width="5.875" stroke-linecap="round" stroke-linejoin="round"/>
<path d="M56.3528 41.2504C54.6843 41.2504 53.1607 40.6159 52.0053 39.578M56.3528 41.2504C56.3528 45.7389 53.7522 50.0003 48.7467 50.0003C43.7412 50.0003 41.1405 54.2616 41.1405 58.7501M56.3528 41.2504C64.7737 41.2504 64.7737 28.1257 56.3528 28.1257C55.5852 28.1283 54.858 28.2523 54.1712 28.4978C54.5825 18.7139 40.4786 16.0584 37.2826 25.2234M37.2826 25.2234C39.613 26.794 41.1405 29.4652 41.1405 32.4967M37.2826 25.2234C30.0289 20.3276 20.3626 29.1127 24.9607 36.946C17.2449 38.1014 18.0674 50.0003 25.9282 50.0003C26.9763 49.9998 28.0087 49.746 28.9376 49.2605C29.8664 48.7749 30.6641 48.072 31.2627 47.2116" stroke="#FFF3F1" stroke-width="5.875" stroke-linecap="round" stroke-linejoin="round"/>
</svg>
