<svg width="80" height="80" viewBox="0 0 80 80" fill="none" xmlns="http://www.w3.org/2000/svg">
<path d="M43.3342 10.0007C56.3342 10.0007 66.6675 20.334 66.6675 33.334C66.6675 42.6673 61.3342 50.6673 53.3342 54.334V70.0006H30.0009V60.0006H26.6675C23.0009 60.0006 20.0009 57.0006 20.0009 53.334V43.334H15.0009C13.6675 43.334 12.6675 41.6673 13.6675 40.6673L20.0009 32.334C20.6675 19.6673 30.6675 10.0007 43.3342 10.0007ZM43.3342 3.33398C28.0009 3.33398 15.3342 14.6673 13.6675 29.6673L8.3342 36.6673C6.3342 39.334 6.3342 42.6673 7.66753 45.334C9.00087 47.6673 11.0009 49.334 13.3342 49.6673V53.334C13.3342 59.6673 17.6675 64.6673 23.3342 66.334V76.6673H60.0009V58.334C68.3342 52.6673 73.3342 43.6673 73.3342 33.334C73.3342 16.6673 60.0009 3.33398 43.3342 3.33398ZM50.0009 30.0006L39.6675 50.0006L41.6675 36.6673H34.6675L41.6675 20.0006H50.0009L45.0009 30.0006H50.0009Z" fill="#FFF3F1"/>
</svg>
