<svg width="94" height="94" viewBox="0 0 94 94" fill="none" xmlns="http://www.w3.org/2000/svg">
<path d="M66.8281 67.5625C66.8281 70.484 65.6676 73.2859 63.6017 75.3517C61.5359 77.4176 58.734 78.5781 55.8125 78.5781C51.0758 78.5781 46.5006 75.5011 44.9327 71.2638C44.7302 70.7155 44.7537 70.1092 44.9982 69.5783C45.2426 69.0474 45.688 68.6353 46.2362 68.4327C46.7845 68.2302 47.3908 68.2537 47.9217 68.4982C48.4526 68.7426 48.8647 69.188 49.0673 69.7362C49.9852 72.2221 52.9484 74.1719 55.8125 74.1719C57.5654 74.1719 59.2465 73.4755 60.486 72.236C61.7255 70.9965 62.4219 69.3154 62.4219 67.5625C62.4219 65.8096 61.7255 64.1285 60.486 62.889C59.2465 61.6495 57.5654 60.9531 55.8125 60.9531H14.6875C14.1032 60.9531 13.5428 60.721 13.1297 60.3078C12.7165 59.8947 12.4844 59.3343 12.4844 58.75C12.4844 58.1657 12.7165 57.6053 13.1297 57.1922C13.5428 56.779 14.1032 56.5469 14.6875 56.5469H55.8125C58.734 56.5469 61.5359 57.7074 63.6017 59.7733C65.6676 61.8391 66.8281 64.641 66.8281 67.5625ZM55.0781 26.4375C55.0781 23.516 53.9176 20.7141 51.8517 18.6483C49.7859 16.5824 46.984 15.4219 44.0625 15.4219C39.3258 15.4219 34.7506 18.4989 33.1827 22.7362C32.9802 23.2845 33.0037 23.8908 33.2482 24.4217C33.4926 24.9526 33.938 25.3647 34.4862 25.5673C35.0345 25.7698 35.6408 25.7463 36.1717 25.5018C36.7026 25.2574 37.1147 24.812 37.3173 24.2638C38.2352 21.7779 41.1984 19.8281 44.0625 19.8281C45.8154 19.8281 47.4965 20.5245 48.736 21.764C49.9755 23.0035 50.6719 24.6846 50.6719 26.4375C50.6719 28.1904 49.9755 29.8715 48.736 31.111C47.4965 32.3505 45.8154 33.0469 44.0625 33.0469H8.8125C8.22819 33.0469 7.66782 33.279 7.25466 33.6922C6.84149 34.1053 6.60938 34.6657 6.60938 35.25C6.60938 35.8343 6.84149 36.3947 7.25466 36.8078C7.66782 37.221 8.22819 37.4531 8.8125 37.4531H44.0625C46.984 37.4531 49.7859 36.2926 51.8517 34.2267C53.9176 32.1609 55.0781 29.359 55.0781 26.4375ZM76.375 27.1719C71.6383 27.1719 67.0631 30.2489 65.4952 34.4862C65.3949 34.7577 65.3491 35.0463 65.3603 35.3355C65.3715 35.6247 65.4396 35.9088 65.5607 36.1717C65.6817 36.4346 65.8534 36.6711 66.0658 36.8676C66.2782 37.0642 66.5273 37.217 66.7987 37.3173C67.0702 37.4176 67.3588 37.4634 67.648 37.4522C67.9372 37.441 68.2213 37.3729 68.4842 37.2518C68.7471 37.1308 68.9836 36.9592 69.1801 36.7467C69.3767 36.5343 69.5295 36.2852 69.6298 36.0138C70.5477 33.5279 73.5109 31.5781 76.375 31.5781C78.1279 31.5781 79.809 32.2745 81.0485 33.514C82.288 34.7535 82.9844 36.4346 82.9844 38.1875C82.9844 39.9404 82.288 41.6215 81.0485 42.861C79.809 44.1005 78.1279 44.7969 76.375 44.7969H11.75C11.1657 44.7969 10.6053 45.029 10.1922 45.4422C9.77899 45.8553 9.54688 46.4157 9.54688 47C9.54688 47.5843 9.77899 48.1447 10.1922 48.5578C10.6053 48.971 11.1657 49.2031 11.75 49.2031H76.375C79.2965 49.2031 82.0984 48.0426 84.1642 45.9767C86.2301 43.9109 87.3906 41.109 87.3906 38.1875C87.3906 35.266 86.2301 32.4641 84.1642 30.3983C82.0984 28.3324 79.2965 27.1719 76.375 27.1719Z" fill="#FFF3F1"/>
</svg>
