<svg width="94" height="94" viewBox="0 0 94 94" fill="none" xmlns="http://www.w3.org/2000/svg">
<path d="M47.0111 78.4118C46.3819 78.4118 45.7539 78.2865 45.1272 78.0358C44.5006 77.7878 43.9653 77.4144 43.5214 76.9157L21.0789 54.3792H26.574L46.2826 74.1231C46.4184 74.2536 46.5359 74.3359 46.6351 74.3698C46.7344 74.4038 46.8519 74.4194 46.9876 74.4168C47.1182 74.4168 47.2331 74.4012 47.3323 74.3698C47.4342 74.3359 47.5517 74.2536 47.6848 74.1231L72.3206 49.4637C74.2738 47.5106 75.7804 45.3173 76.8405 42.8837C77.9006 40.4502 78.4058 37.9814 78.3562 35.4773C78.2753 30.9731 76.8483 27.1557 74.0753 24.025C71.3049 20.8917 67.9157 19.325 63.9076 19.325C61.7848 19.325 59.7194 19.7558 57.7115 20.6175C55.7062 21.4792 53.9632 22.7338 52.4827 24.3814L48.9342 28.2002C48.6601 28.5396 48.3624 28.7746 48.0412 28.9052C47.7201 29.0357 47.3767 29.0997 47.0111 29.0971C46.6456 29.0945 46.2826 29.0135 45.9223 28.8542C45.562 28.695 45.2434 28.4769 44.9666 28.2002L41.4181 24.3814C39.9481 22.7286 38.2117 21.4661 36.209 20.594C34.2036 19.7193 32.1317 19.2819 29.9932 19.2819C26.5675 19.2819 23.5777 20.47 21.0241 22.8461C18.473 25.2248 16.815 28.2054 16.0499 31.7878H12.0901C12.8996 27.0904 14.9545 23.179 18.255 20.0535C21.5554 16.928 25.4682 15.3652 29.9932 15.3652C32.6748 15.3652 35.252 15.911 37.7247 17.0024C40.1975 18.0912 42.4104 19.6697 44.3635 21.7377L46.9994 24.5263L49.4865 21.8904C51.4735 19.7702 53.7165 18.1526 56.2153 17.0377C58.7141 15.9227 61.2783 15.3652 63.9076 15.3652C69.0306 15.3652 73.369 17.3288 76.9227 21.2559C80.4765 25.183 82.252 29.9222 82.2494 35.4734C82.2494 38.5232 81.6449 41.479 80.436 44.3407C79.2244 47.2025 77.4841 49.7758 75.2151 52.0605L50.3834 76.9196C49.8847 77.4157 49.3546 77.7878 48.7932 78.0358C48.2318 78.2839 47.6378 78.4079 47.0111 78.4079M46.5842 45.0418H11.9766V41.1252H62.1765C63.7875 41.1252 65.1701 40.5494 66.3242 39.3979C67.4757 38.2438 68.0515 36.8612 68.0515 35.2502C68.0515 33.6391 67.4757 32.2565 66.3242 31.1024C65.1701 29.9509 63.7875 29.3752 62.1765 29.3752C61.2104 29.3752 60.3069 29.5945 59.4661 30.0332C58.6228 30.4744 57.9269 31.1011 57.3786 31.9131L53.4541 30.8361C54.3236 29.1937 55.526 27.8868 57.0613 26.9155C58.5966 25.9442 60.3017 25.4585 62.1765 25.4585C64.8973 25.4585 67.2081 26.4102 69.109 28.3137C71.0151 30.2146 71.9681 32.5242 71.9681 35.2423C71.9681 37.9605 71.0151 40.2726 69.109 42.1787C67.2029 44.0848 64.892 45.0392 62.1765 45.0418H54.1082C54.8079 45.846 55.3484 46.7338 55.7296 47.7052C56.1109 48.6765 56.3015 49.747 56.3015 50.9168C56.3015 53.6376 55.3484 55.9484 53.4423 57.8493C51.5414 59.7554 49.2306 60.7085 46.5098 60.7085C44.6376 60.7085 42.9326 60.2228 41.3946 59.2515C39.8593 58.2802 38.6569 56.9733 37.7874 55.3309L41.7119 54.2538C42.2602 55.0685 42.9561 55.6951 43.7995 56.1338C44.6429 56.5725 45.5463 56.7918 46.5098 56.7918C48.1209 56.7918 49.5035 56.2161 50.6576 55.0646C51.8091 53.9105 52.3848 52.5279 52.3848 50.9168C52.3848 49.3058 51.8208 47.9232 50.6928 46.7691C49.5648 45.615 48.1953 45.0392 46.5842 45.0418Z" fill="#FFF3F1"/>
</svg>
